<svg xmlns:rdf="http://www.w3.org/1999/02/22-rdf-syntax-ns#" xmlns="http://www.w3.org/2000/svg" height="347.87" width="664.92" version="1.1" xmlns:cc="http://creativecommons.org/ns#" xmlns:dc="http://purl.org/dc/elements/1.1/" viewBox="0 0 664.92316 347.87903">
 <defs>
  <filter id="i" style="color-interpolation-filters:sRGB" height="1.0294" width="1.0283" y="-.01468" x="-.01413">
   <feGaussianBlur stdDeviation="0.37962714"/>
  </filter>
  <filter id="j" style="color-interpolation-filters:sRGB" height="1.1414" width="1.0685" y="-.070688" x="-.034268">
   <feGaussianBlur stdDeviation="0.56797809"/>
  </filter>
  <filter id="l" style="color-interpolation-filters:sRGB" height="1.1267" width="1.0835" y="-.063367" x="-.041757">
   <feGaussianBlur stdDeviation="0.56797809"/>
  </filter>
  <filter id="m" style="color-interpolation-filters:sRGB" height="1.2307" width="1.1116" y="-.11536" x="-.055819">
   <feGaussianBlur stdDeviation="0.36776366"/>
  </filter>
  <filter id="n" style="color-interpolation-filters:sRGB" height="1.4136" width="1.1348" y="-.2068" x="-.067418">
   <feGaussianBlur stdDeviation="0.36776366"/>
  </filter>
  <filter id="o" style="color-interpolation-filters:sRGB" height="1.5191" width="1.6107" y="-.25956" x="-.30536">
   <feGaussianBlur stdDeviation="0.36776366"/>
  </filter>
  <filter id="p" style="color-interpolation-filters:sRGB" height="1.7233" width="1.2966" y="-.36163" x="-.14832">
   <feGaussianBlur stdDeviation="0.36776366"/>
  </filter>
  <filter id="q" style="color-interpolation-filters:sRGB" height="1.4771" width="1.1314" y="-.23857" x="-.065711">
   <feGaussianBlur stdDeviation="0.36776366"/>
  </filter>
  <filter id="k" style="color-interpolation-filters:sRGB" height="1.0265" width="1.0315" y="-.013266" x="-.015746">
   <feGaussianBlur stdDeviation="0.40940442"/>
  </filter>
 </defs>
 <path d="m384.72 287.67v23.68s-2.485 9.6476 6.8702 4.2391 7.4549-17.98 7.4549-17.98l-3.5082.14618 3.2158-3.8006-.73088-5.847-3.8006-.14617 3.362-2.485-1.9003-7.4549-2.8504.80397s-1.2425.36543-.36544-1.4618c.87705-1.8272 1.5348-4.8238 1.5348-4.8238s-6.3586-12.498-7.9665-12.352c-1.6079.14617-1.4618 2.0464-1.4618 2.0464z" style="fill:#346e40;fill-rule:evenodd"/>
 <path style="fill:#60b365;fill-rule:evenodd" d="m367.46 300.99 9.9443 10.655s5.4802 3.0075-2.17 5.594-11.837-4.0896-11.837-4.0896l2.0785-1.8168-3.445.0156-2.0352-3.0231 2.1238-2.1052-2.9766.68596-2.038-4.3741 1.9765-1.1678s.86784-.5023-.40374-.85382c-1.2716-.35153-2.9082-1.3469-2.9082-1.3469s-1.5924-9.0356-.60652-9.8327c.98589-.79705 1.6998.13643 1.6998.13643z"/>
 <path d="m384.14 287.67v23.68s2.485 9.6476-6.8702 4.2391-7.4549-17.98-7.4549-17.98l3.5082.14618-3.2158-3.8006.73087-5.847 3.8006-.14617-3.362-2.485 1.9003-7.4549 2.8504.80397s1.2425.36543.36544-1.4618c-.87705-1.8272-1.5348-4.8238-1.5348-4.8238s6.3586-12.498 7.9665-12.352c1.6079.14617 1.4618 2.0464 1.4618 2.0464z" style="fill:#60b365;fill-rule:evenodd"/>
 <path style="fill:#346e40;fill-rule:evenodd" d="m367.8 300.68 9.9443 10.655s2.6226 5.6744 5.7303-1.7792c3.1077-7.4537-3.264-12.09-3.264-12.09l-1.9557 1.9483.25301-3.4357-2.8756-2.2387-2.2466 1.9736.88951-2.9222-4.2232-2.3347-1.3013 1.8913s-.56093.83116-.82396-.46164c-.26304-1.2928-1.1432-2.9941-1.1432-2.9941s-8.9044-2.2115-9.7675-1.2829c-.86312.9286.019 1.7052.019 1.7052z"/>
 <path d="m398.04 300.99-9.9443 10.655s-5.4802 3.0075 2.17 5.594 11.837-4.0896 11.837-4.0896l-2.0785-1.8168 3.445.0156 2.0352-3.0231-2.1238-2.1052 2.9766.68596 2.038-4.3741-1.9765-1.1678s-.86784-.5023.40374-.85382c1.2716-.35153 2.9082-1.3469 2.9082-1.3469s1.5924-9.0356.60652-9.8327c-.98589-.79705-1.6998.13643-1.6998.13643z" style="fill:#60b365;fill-rule:evenodd"/>
 <path d="m397.71 300.68-9.9443 10.655s-2.6226 5.6744-5.7303-1.7792c-3.1077-7.4537 3.264-12.09 3.264-12.09l1.9557 1.9483-.25301-3.4357 2.8756-2.2387 2.2466 1.9736-.88951-2.9222 4.2232-2.3347 1.3013 1.8913s.56093.83116.82396-.46164c.26304-1.2928 1.1432-2.9941 1.1432-2.9941s8.9044-2.2115 9.7675-1.2829c.86312.9286-.019 1.7052-.019 1.7052z" style="fill:#346e40;fill-rule:evenodd"/>
 <path d="m651.08 334.01 8.114 8.694s4.4715 2.454-1.7706 4.5644c-6.242 2.1104-9.658-3.3369-9.658-3.3369l1.6959-1.4824-2.8109.0127-1.6606-2.4667 1.7329-1.7177-2.4287.5597-1.6629-3.569 1.6127-.95286s.7081-.40984-.32943-.69666c-1.0375-.28683-2.3729-1.099-2.3729-1.099s-1.2993-7.3725-.49488-8.0229c.80442-.65034 1.387.11132 1.387.11132z" style="fill:#60b365;fill-rule:evenodd"/>
 <path style="fill:#60b365;fill-rule:evenodd" d="m664.68 323.14v19.322s2.0276 7.8718-5.6057 3.4588-6.0828-14.67-6.0828-14.67l2.8625.11927-2.6239-3.101.59635-4.7708 3.101-.11926-2.7432-2.0276 1.5505-6.0828 2.3258.65599s1.0138.29817.29818-1.1927-1.2523-3.9359-1.2523-3.9359 5.1882-10.198 6.5002-10.078c1.312.11926 1.1927 1.6698 1.1927 1.6698z"/>
 <path d="m651.35 333.76 8.114 8.6939s2.1399 4.63 4.6756-1.4517-2.6632-9.865-2.6632-9.865l-1.5957 1.5897.20644-2.8033-2.3463-1.8266-1.8331 1.6104.72578-2.3844-3.4459-1.905-1.0618 1.5432s-.45768.67818-.6723-.37667-.93279-2.443-.93279-2.443-7.2654-1.8044-7.9697-1.0467c-.70426.75768.0155 1.3913.0155 1.3913z" style="fill:#346e40;fill-rule:evenodd"/>
 <path style="fill:#90bf3f;fill-rule:evenodd" d="m-.0054017 347.65s176.79.5928 366.41-.14775c130.04-.50786 208.15-1.7207 295.13.14776 0 0-78.083-24.354-201.67-36.648-155.85-15.503-345.99.7405-459.86 36.648z"/>
 <path d="m497.24 242.67s.96181-2.0438 1.8034-4.9293c.84158-2.8854 1.082-7.3338 1.082-7.3338s-4.5686-2.7652-5.4102-4.5686c-.84158-1.8034-.36067-4.9292-.36067-4.9292s-.48091-2.4045-1.4427-2.8854c-.96181-.4809 1.3225-2.4045 1.9236-3.4865.60113-1.082 1.082-5.4102 2.1641-8.0551 1.082-2.645 4.9293-6.8529 4.9293-6.8529s-.84158-1.9236-.84158-2.5247c0-.60113 2.2843-6.8529 7.9349-7.6944 5.6506-.84157 11.301 2.1641 11.301 2.1641s.60112 4.809 4.9292 6.2517 8.536-.84158 8.536-.84158 1.4427-.60112 2.645-5.1697c0 0 3.727-3.6068 7.5742-2.1641s2.7652 4.4484 2.7652 5.1697c0 .72136 8.536 15.389 9.7383 16.23 1.2023.84158.36068 4.5686.36068 4.9292 0 .36068-.48091 9.0169-3.2461 9.6181-2.7652.60113-3.9674 2.2843-3.9674 2.2843l.60112 12.383s.60113 3.3663 1.4427 3.4866c.84158.12022-6.1315 9.4978-28.614 7.2135 0 0-16.471-.4809-25.849-8.2956z" style="fill-rule:evenodd;filter:url(#i);stroke:#500006;stroke-width:.50001;fill:#7ec2b5"/>
 <path d="m513.59 319.13c.7794-.73213 1.4401 2.3341.72135 3.1259-3.9428 4.3432-7.6921 9.9772-17.072 9.8585-9.4978-.12022-16.779-1.2324-18.755-7.6944-.2535-.82907.76301-2.7022 1.4427-2.1641 2.8536 2.2594 2.8124 8.4557 21.641 5.4102 4.2653-.68992 7.0764-3.8899 12.023-8.536z" style="fill:#f5f7f8;fill-rule:evenodd"/>
 <path d="m480 322.67s1.1902-6.1209 9.3514-14.792c0 0 12.242-4.9307 23.293 10.712 0 0-5.6108 11.052-18.873 9.8614 0 0-7.8211 1.8703-13.772-5.7808z" style="filter:url(#l);stroke:#000;stroke-width:.5;fill:#288170;fill-rule:evenodd"/>
 <path d="m489.36 307.2s-.68009-3.0604.51008-4.0806 4.4206-10.882 4.4206-14.792c0-3.9106.85013-16.492 1.7002-20.233.85013-3.7405.51008-12.752.51008-14.452 0-1.7002 1.3602-9.0113 1.3602-9.6914 0 0 26.864 15.302 53.388 1.1902 0 0 1.1902 7.8212-1.0201 12.072 0 0-1.3602 9.8614-1.0202 16.662 0 0-1.3602 10.201-2.7204 18.873 0 0-.34005 4.7607 1.0202 7.8211s.34005 4.2506.34005 4.2506-6.4609-5.7808-22.953 9.1813c0 0-5.2708 4.2506-5.6108 1.0202 0 0 .85013-14.622 2.8904-22.953 0 0 1.1902-9.5214.6801-12.242 0 0-5.1007 6.1209-7.4811 25.844l-.51007 10.201s.85012 3.0604-2.8904 1.8703c0 0-6.971-12.412-22.613-10.542z" style="fill-rule:evenodd;filter:url(#k);stroke:#500006;stroke-width:1px;fill:#f04949"/>
 <path d="m494.29 303.12s5.6108-1.7002 7.3111-.34005c1.7002 1.3602 5.7808 3.0604 5.7808 3.7406" style="filter:url(#n);stroke:#000;stroke-width:1px;fill:none"/>
 <path d="m527.1 307.37s5.2708-6.631 15.812-7.6511" style="filter:url(#m);stroke:#000;stroke-width:1px;fill:none"/>
 <path d="m500.07 250.92s2.8904 2.8904 5.9509 2.3803" style="filter:url(#p);stroke:#000;stroke-width:1px;fill:none"/>
 <path d="m499.56 253.64s1.3602 3.2305 2.8904 3.4005" style="filter:url(#o);stroke:#000;stroke-width:1px;fill:none"/>
 <path d="m516.9 277.96s7.6511-5.7808 13.432-2.8904" style="filter:url(#q);stroke:#000;stroke-width:1px;fill:none"/>
 <path d="m519.62 317.23-.6801 3.2305s1.8703 2.8904 7.141 2.8904c5.2708 0 13.092 2.8904 14.112 3.5705 1.0202.6801 14.452 2.3803 20.403-3.0604l-.34005-3.5705s-3.0604 4.0806-17.683 3.7405c0 0-9.3514-3.4005-12.242-3.4005-2.8904 0-10.712-3.4005-10.712-3.4005z" style="fill:#f5f7f8;fill-rule:evenodd"/>
 <path d="m519.96 317.4s12.242-8.8413 15.132-9.3514c2.8904-.51007 9.2305-9.6914 23.683 7.3111 0 0 1.6511 4.4206.63097 5.1007-1.0202.6801-10.031 10.202-39.446-3.0604z" style="filter:url(#j);stroke:#000;stroke-width:.5;fill:#288170;fill-rule:evenodd"/>
 <path d="m549.78 310.95s7.454 4.5686 9.1372 10.46" style="stroke:#2c665b;stroke-width:1px;stroke-opacity:.65931;fill:none"/>
 <path d="m488 313.66s9.8614.51008 13.092 3.4005" style="stroke-linejoin:round;stroke:#fff;stroke-width:.5;stroke-linecap:round;fill:none"/>
 <path d="m489.27 311.28s9.8614.51008 13.092 3.4005" style="stroke-linejoin:round;stroke:#fff;stroke-width:.5;stroke-linecap:round;fill:none"/>
 <path d="m490.38 308.65s9.8614.51008 13.092 3.4005" style="stroke-linejoin:round;stroke:#fff;stroke-width:.5;stroke-linecap:round;fill:none"/>
 <path d="m488.95 314.92s-3.727 3.0056-6.6124 9.7383" style="stroke:#2c665b;stroke-width:1px;stroke-opacity:.65931;fill:none"/>
 <path d="m498.57 316.84s-3.727 3.4866-3.727 11.061" style="stroke:#2c665b;stroke-width:1px;stroke-opacity:.65931;fill:none"/>
 <path d="m544.37 313s7.9349 4.0877 8.7765 10.099" style="stroke:#2c665b;stroke-width:1px;stroke-opacity:.65931;fill:none"/>
 <path d="m539.08 313.96s5.6506-5.1697 11.662-4.2079" style="stroke-linejoin:round;stroke:#fff;stroke-width:.5;stroke-linecap:round;fill:none"/>
 <path d="m538.12 312.04s5.6506-5.1697 11.662-4.2079" style="stroke-linejoin:round;stroke:#fff;stroke-width:.5;stroke-linecap:round;fill:none"/>
 <path d="m536.2 310.35s5.6506-5.1697 11.662-4.2079" style="stroke-linejoin:round;stroke:#fff;stroke-width:.5;stroke-linecap:round;fill:none"/>
 <path d="m494 219.46s7.8147-5.2899 13.946-4.5686l-1.2023 3.9674s3.9674-7.0933 18.154-9.8585c0 0 10.339-9.1372 18.274-1.6832l3.0056 2.645s-8.0551 6.7326-10.339 7.454c-2.2843.72136-4.0877.36068-4.0877.36068s1.082-1.082 1.4427-1.6832c.36067-.60113-14.307 11.782-16.471 12.383-2.1641.60112-11.662 6.1315-20.679-.72136 0 0-2.5247-2.1641-1.6832-8.2956" style="stroke:#500006;stroke-width:0.3;fill:#f5d0a7;fill-rule:evenodd"/>
 <path d="m509.15 215.74s5.6506-12.864 16.471-6.9731c0 0-12.143 3.1259-16.591 7.3338" style="stroke:#500006;stroke-width:0.3;fill:#f5d0a7;fill-rule:evenodd"/>
 <path d="m525.98 222.11s14.427 7.3338 23.083 5.4102c0 0 5.8659-3.2573 7.0933-6.1315.92978-2.1773.12022-6.7326-.36068-7.0933-.48091-.36067-4.3281-3.8472-8.1754-3.2461 0 0-.4809-1.9236-4.9292 1.6832-4.4484 3.6068-7.454 6.2517-11.061 5.2899-1.1917-.3178-1.9634.94521-2.5363 1.3951-1.1609.9117-1.5053 1.8457-2.8738 3.0532" style="stroke:#500006;stroke-width:0.3;fill:#f4d1a1;fill-rule:evenodd"/>
 <path d="m519.85 190.99 3.5242.28418s5.4218 6.82 9.6237-.42626l3.7953.14208s1.491 6.8201-8.6749 7.6726c0 0-6.6417.14207-8.2683-7.6726z" style="stroke:#500006;stroke-width:.2;fill:#f8fbf5;fill-rule:evenodd"/>
 <path d="m489.31 150.57s-8.8967 7.6944 0 23.564c0 0 5.0495 7.9349 9.618 9.6181 0 0 23.564 15.148 49.533 3.3663 0 0 6.7326 6.9731 17.793 0 0 0 12.744-11.061 2.645-17.312 0 0-4.809-1.9236-10.58.24045l4.0877-24.766 3.1259-13.946-24.526-28.614-18.274-4.3281-10.82 9.8585-2.4045 2.1641s-6.2517 4.0877-11.301 14.427c0 0-1.6832 6.2517-2.4045 7.6944-.72135 1.4427-1.2022-.4809-1.2022-.4809s-6.7326 1.4427-7.454 9.8585c0 0-.4809 5.2899 2.1641 8.6562z" style="stroke:#fdcd9f;stroke-width:1px;fill:#fdcd9f;fill-rule:evenodd"/>
 <path d="m501.81 169.09s9.1372-6.0113 12.984 7.6944" style="stroke:#000;stroke-width:1px;fill:none"/>
 <path d="m516.24 149.61s-2.645 6.7326-3.6068 6.7326-3.1259-.96181-4.0877-1.6832c-.96181-.72135-3.6068 3.1259-1.9236 6.7326 0 0 3.8472 2.4045 6.7326.9618" style="stroke:#000;stroke-width:1px;fill:none"/>
 <path d="m504.94 125.81s3.6068-2.645 5.2899 2.8854c1.6832 5.5304 4.5686 8.1754 4.5686 8.1754s4.809 2.4045 5.2899-4.5686c0 0-1.9236 1.6832-4.3281-.72135 0 0-3.1259-7.454-5.2899-8.1754-2.1641-.72135-5.5304 2.4045-5.5304 2.4045z" style="stroke:#000;stroke-width:1px;fill:#050100;fill-rule:evenodd"/>
 <path d="m550.36 144.73s-1.1931-5.8078-7.1968-2.7513c-6.0036 3.0565-10.792 3.1492-10.792 3.1492s-6.3665-1.3542-1.1949-6.9211c0 0 .41692 2.5332 4.5682 2.3051 0 0 8.4007-2.3532 10.975-1.4722 2.5745.88097 3.6398 5.6903 3.6398 5.6903z" style="stroke:#000;stroke-width:1px;fill:#050100;fill-rule:evenodd"/>
 <path d="m554.95 183.51s8.0412 3.961 12.263-1.4427c1.5913-2.0368 1.5969-7.3284-.96181-7.6944-2.4659-.35281-6.4922.48091-9.3776 2.645 0 0-4.0877 1.4427-1.9236 6.4922z" style="fill:#eabc91;fill-rule:evenodd"/>
 <path d="m557.43 181.01s1.8359-2.7538 3.4882-2.9374c1.6523-.18359 4.9569 3.121 4.039 3.6718" style="fill:#ecb683;fill-rule:evenodd"/>
 <path d="m519.62 138.54s2.3804-2.0403 2.5504-5.4408" style="stroke:#000;stroke-width:1px;fill:none"/>
 <path d="m526.47 141.24s-1.7002.12838 1.7338-5.575" style="stroke:#000;stroke-width:1px;fill:none"/>
 <path d="m513.16 143.64c0 4.789-3.2022 10.031-7.9912 10.031s-8.576-5.2425-7.3111-9.8614c1.8703-6.8293 3.8822-8.1612 8.6713-8.6713 4.7621-.5072 6.631 3.7122 6.631 8.5012z" style="color-rendering:auto;fill-rule:evenodd;color:#000000;isolation:auto;mix-blend-mode:normal;shape-rendering:auto;solid-color:#000000;stroke:#500006;image-rendering:auto;stroke-width:0.3;fill:#eff1ee"/>
 <circle r="2.3803" style="color-rendering:auto;fill-rule:evenodd;color:#000000;isolation:auto;mix-blend-mode:normal;shape-rendering:auto;solid-color:#000000;stroke:#500006;image-rendering:auto;stroke-width:0.3;fill:#050201" cx="501.21" cy="144.2"/>
 <path d="m543.76 158.09c0 5.5402-5.5064 10.542-10.201 10.542-4.6951 0-11.052-4.1512-11.052-9.6914 0-2.6237 2.757-6.5629 5.8003-8.5512 3.3831-2.2103 5.998-2.1191 8.4697-2.1191 4.6951 0 6.9831 4.28 6.9831 9.8202z" style="color-rendering:auto;fill-rule:evenodd;color:#000000;isolation:auto;mix-blend-mode:normal;shape-rendering:auto;solid-color:#000000;stroke:#500006;image-rendering:auto;stroke-width:0.3;fill:#eff1ee"/>
 <circle r="2.3803" cy="155.8" cx="528.88" style="color-rendering:auto;fill-rule:evenodd;color:#000000;isolation:auto;mix-blend-mode:normal;shape-rendering:auto;solid-color:#000000;stroke:#500006;image-rendering:auto;stroke-width:0.3;fill:#050201"/>
 <path d="m495.56 132.18s-.36067-12.744 5.6506-24.406l-5.0534-1.5402s25.164-44.887 82.972-16.322c0 0 25.716 17.382 16.218 42.148 0 0-.4809 1.8034.24045 1.5629.72136-.24045 5.4102.48091 6.0113-11.061 0 0 3.1259 2.645 1.3225 6.1315s-7.454 6.2517-7.454 6.2517 8.8967-2.8854 11.181 8.1753c0 0 1.9236-6.6124-10.339-7.2135 0 0 6.6237 3.6519 5.0934 12.833 0 0-2.2103 21.593-28.564 31.455 0 0 4.4206-14.452-14.452-10.372 0 0 1.8703-18.023 4.4206-26.184l-10.031-8.3312 3.5705-6.4609s0-1.1902-1.5302-.85013l-5.9509 3.9106-8.6713-4.9307 7.8211-7.141s-.51007-2.0403-1.8703-1.0202c-1.3602 1.0202-8.1612 6.2909-8.1612 6.2909l-6.631-4.2506 6.801-6.1209s-1.3602-.85013-2.5504-.17003-6.1209 4.7607-6.1209 4.7607l-8.5012-4.7607 5.7808-5.6108s-.6801-1.3602-2.0403-.85012c-1.3602.51007-5.7808 4.7607-5.7808 4.7607l-8.3312-3.4005s-9.5257 6.3253-15.049 22.716z" style="stroke:#000;stroke-width:1px;fill-rule:evenodd"/>
 <path d="m232.9 80.067c24.28-1.2294 23.358 25.817 23.358 25.817-2.1514 33.193-44.565 45.487-44.565 45.487-55.629 12.601-90.666-12.601-90.666-12.601-27.661-21.514-14.138-48.56-14.138-48.56 7.3762-10.45 19.977-10.757 19.977-10.757l-4.6101-3.9954s18.441-20.899 15.674-33.5c0 0 15.06 2.7661 39.033-4.9175 0 0 19.67-7.3762 29.812 6.1468 12.085 15.705 39.646 40.096 26.124 36.881z" style="stroke:#000;stroke-width:.5;fill:#f8cdaa;fill-rule:evenodd"/>
 <path d="m104.73 67.158s1.2294-26.431 17.826-32.578c0 0 .92201-37.496 57.78-34.115l-6.7615 5.5322s32.886-9.2203 56.244 11.372c0 0-8.2982-.92202-9.835 1.2294 0 0 19.055 3.0734 25.817 15.982 0 0-2.4587-3.6881-10.757-1.2294 0 0 13.216 7.0689 13.216 31.656 0 0-4.5346 2.027-5.1663 16.389l-7.2274-1.5782s-14.038-20.343-23.565-29.871c0 0-7.3762-16.904-29.505-14.752 0 0-21.514 8.2982-44.565 7.3762 0 0 2.8246 19.072-12.235 36.898l-7.842 2.1099.0415-5.2004s-.24883-11.372-7.3177-11.986z" style="stroke:#000;stroke-width:.5;fill:#f19c39;fill-rule:evenodd"/>
 <ellipse style="color-rendering:auto;fill-rule:evenodd;color:#000000;isolation:auto;mix-blend-mode:normal;shape-rendering:auto;solid-color:#000000;stroke:#000;image-rendering:auto;stroke-width:.50055;fill:#fbfcfe" rx="10.074" transform="matrix(-.95771 .28775 .35075 .93647 0 0)" ry="13.841" cy="130.8" cx="-162.65"/>
 <path d="m223.1 79.872c-.0686.06827-5.2992-1.327-11.572.12806-6.2861 1.458-13.526 5.757-17.686 17.087 4.3161-11.272 11.636-15.339 17.792-16.598 6.1688-1.2617 11.261.27726 11.192.34536z" style="fill:#fd9175;fill-rule:evenodd"/>
 <circle cx="199.83" style="color-rendering:auto;fill-rule:evenodd;color:#000000;isolation:auto;mix-blend-mode:normal;shape-rendering:auto;solid-color:#000000;stroke:#000;image-rendering:auto;stroke-width:.5;fill:#dd9a03" r="6.0851" cy="77.859"/>
 <circle r="3.2599" cy="77.859" cx="199.83" style="color-rendering:auto;fill-rule:evenodd;color:#000000;isolation:auto;mix-blend-mode:normal;shape-rendering:auto;solid-color:#000000;stroke:#000;image-rendering:auto;stroke-width:.5;fill:#100605"/>
 <path d="m105.27 66.819s-10.787 13.491 3.6487 21.037c0 0 10.608-1.687 10.376-8.0667.23204-.46399.57996-6.3797-.11598-7.7716 0 0-2.9-8.8155-7.8877-7.8876 0 0-3.8059.62208-6.0207 2.6889z" style="fill:#e8c693;fill-rule:evenodd"/>
 <ellipse style="color-rendering:auto;fill-rule:evenodd;color:#000000;isolation:auto;mix-blend-mode:normal;shape-rendering:auto;solid-color:#000000;stroke:#000;image-rendering:auto;stroke-width:.50064;fill:#fff" rx="10.067" ry="13.742" transform="matrix(.95835 .28558 -.35328 .93552 0 0)" cy="27.174" cx="175.62"/>
 <circle r="6.0851" cy="77.424" cx="159.58" style="color-rendering:auto;fill-rule:evenodd;color:#000000;isolation:auto;mix-blend-mode:normal;shape-rendering:auto;solid-color:#000000;stroke:#000;image-rendering:auto;stroke-width:.5;fill:#e07b09"/>
 <circle cx="160.88" style="color-rendering:auto;fill-rule:evenodd;color:#000000;isolation:auto;mix-blend-mode:normal;shape-rendering:auto;solid-color:#000000;stroke:#000;image-rendering:auto;stroke-width:.5;fill:#040102" r="3.2599" cy="77.859"/>
 <path d="m136.69 80.526c-.0684-.06809 5.0235-1.607 11.192-.34536 6.156 1.2591 13.476 5.326 17.792 16.598-4.1597-11.33-11.4-15.629-17.686-17.087-6.2732-1.4551-11.504-.05978-11.572-.12806z" style="fill:#fd9175;fill-rule:evenodd"/>
 <path d="m172.75 103.38s-3.76-14.664 9.3999-10.904c0 0 8.6479 1.88 6.7679 8.2719" style="stroke:#e9815e;stroke-width:1px;fill:none"/>
 <path d="m142.84 105.89s10.432 24.992 44.769 19.342c0 0 18.473-.43466 29.991-21.08" style="stroke:#db664c;stroke-width:0.3;fill:none"/>
 <path d="m171.1 129.8s6.9544 6.0851 20.646-.65196c0 0-18.255 2.1732-20.646.65196z" style="fill:#ee8b64;fill-rule:evenodd"/>
 <path d="m209.35 104.82c-.072-.0577 2.0288-1.2051 4.8456-1.4745 2.8014-.26797 6.3882.32407 9.2741 3.8525-2.765-3.6443-6.3489-4.4628-9.3071-4.3515-2.9425.11071-5.1877 1.1369-5.2599 1.079z" style="stroke:#db664c;stroke-width:0.3;fill:#c54138;fill-rule:evenodd"/>
 <path d="m136.98 110.24.48963.1013c-.0832.0453.10343-1.4655 1.6813-2.898 1.5707-1.426 4.5455-2.7722 9.9993-2.2018-5.4131-.73334-8.5221.41926-10.321 1.8187-1.7879 1.3912-2.2588 3.0347-2.3392 3.0784l.48963.1013z" style="stroke:#db664c;stroke-width:0.3;fill:#c54138;fill-rule:evenodd"/>
 <path d="m255.13 67.556s10.105 12.638-3.4181 19.707c0 0-9.9371-1.5804-9.7198-7.5568-.21737-.43464-.5433-5.9764.10854-7.2804 0 0 2.7167-8.2583 7.3891-7.389 0 0 3.5653.58277 5.6402 2.519z" style="fill:#e8c693;fill-rule:evenodd"/>
 <path d="m245.42 81.553s-.65197-18.255 8.9103-8.2583c0 0 2.6079 7.1717-3.6945 11.736 0 0-5.4331-.65197-5.2158-3.4772z" style="fill:#f7a17d;fill-rule:evenodd"/>
 <path d="m115.05 80.834s.69599-19.487-9.5115-8.8155c0 0-2.7839 7.6556 3.9438 12.527 0 0 5.7997-.69596 5.5677-3.7118z" style="fill:#f7a17d;fill-rule:evenodd"/>
 <path d="m231.1 142.26 9.1018-5.9359s40.205 8.693 53.896 25.427c0 0-20.646 24.558-33.033 26.079 0 0-13.883-32.965-29.965-45.57z" style="fill:#ffdb25;fill-rule:evenodd"/>
 <path d="m131.71 145.72-11.927-7.6616s-33.685 6.5197-47.377 23.254c0 0 4.9984 13.691 33.033 26.079 0 0 6.4939-28.197 26.27-41.671z" style="fill:#ffdb25;fill-rule:evenodd"/>
 <path d="m66.319 168.28s8.913 17.98 38.418 27.968l2.1514-9.374s-28.89-14.445-34.422-26.278z" style="fill:#fb2b2b;fill-rule:evenodd"/>
 <path d="m66.779 169.79s-13.486 14.724 4.7811 35.641c2.9094 3.3315 9.5623 6.9544 11.301 6.9544 0 0-9.1276 6.0851.8693 12.605 0 0-11.301-.8693-11.736 6.9544 0 0 4.3465 9.1276 20.428-.86929l-10.432 5.2158s-3.9118 6.0851 13.474.43464l5.6504-21.732-1.9174-.76858s-2.3051-1.383-3.0734-1.383c-.76837 0 3.2271-7.5299 2.4587-19.516-.76835-11.986-30.417-23.252-31.805-23.536z" style="fill:#f9ceaa;fill-rule:evenodd"/>
 <path d="m95.209 224.96s-1.2294 9.3963.30735 10.933c.56053.56055 5.8806 4.971 26.729 8.6633 41.286 7.3119 101.89 10.895 147.19-6.872l2.496-8.2455s-36.934 12.834-91.641 10.682c0 0-70.944-1.6383-85.081-15.161z" style="fill:#fecd10;fill-rule:evenodd"/>
 <path d="m95.469 226.29s3.4772-29.556 17.821-36.51l-7.389 6.5197s-5.2158-24.34 23.906-51.723c0 0 57.374 25.21 103.01-2.6079 0 0 31.729 32.164 27.383 53.896 0 0-6.9544-7.389-9.5623-7.389s15.213 2.1733 20.863 41.292c0 0-92.399 25.768-168.33 1.7441-3.3731-1.0671-4.4507-3.8025-7.6991-5.2213z" style="stroke:#000;stroke-width:0.3;fill:#fb2b2b;fill-rule:evenodd"/>
 <path d="m168.27 136.54s13.909 18.473 27.6-.43464c0 0-1.5213 10.866-10.649 11.518 0 0-11.736 1.7386-16.951-11.084z" style="fill:#e2ac97;fill-rule:evenodd"/>
 <path d="m298.96 168.22s14.1 16.261-4.1665 37.178c-2.9094 3.3315-9.5623 6.9544-11.301 6.9544 0 0 9.1276 6.0851-.8693 12.605 0 0 11.493.45042 10.967 6.4934 0 0-3.5781 9.5886-19.66-.40829l10.432 5.2158s3.9118 6.0851-13.474.43464l-5.6504-21.732 1.9174-.76856s2.3051-1.383 3.0734-1.383c.76839 0-3.2271-7.5299-2.4587-19.516.76836-11.986 29.803-24.789 31.19-25.072z" style="fill:#f9ceaa;fill-rule:evenodd"/>
 <path d="m260.54 195.48s20.064-2.6042 38.589-27.276l-5.2294-7.4023s-20.936 24.542-33.756 27.045z" style="fill:#fb2b2b;fill-rule:evenodd"/>
 <path d="m114.86 305.79s6.5013-.1404 14.26 2.8448c4.351 1.6743 9.0975 4.3317 13.314 8.5484 0 0 1.8231-1.1394.0844-4.2906 0 0 .32595-1.304 1.4126-2.0646 0 0-.21738-3.0425-1.0866-4.0205-.86927-.97796-7.1717-9.019-16.191-9.9969-9.019-.97798-9.8883.10854-9.8883.10854s-3.2599 3.3685.21736 4.3465c0 0-4.7307 1.4818-2.1228 4.5244z" style="stroke:#000;stroke-width:.5;fill:#80b0d6;fill-rule:evenodd"/>
 <path d="m222.39 307.35s-2.1732 3.9118 1.0866 4.7811c0 0-2.8252 2.6079-1.7386 3.2599 1.0866.65194 5.4593-.22107 8.7192-3.481 3.2598-3.2599 14.318-5.6467 14.318-5.6467l4.7812-.65197s3.6945-2.1732.21735-4.7812h-3.9119s7.8237-1.5213 3.0425-4.5638c0 0-14.343-5.2158-26.514 11.084z" style="stroke:#000;stroke-width:.5;fill:#80b0d6;fill-rule:evenodd"/>
 <path d="m143.42 318.36s-8.8357 3.3608-9.2704 2.4915c-3.5357-10.238-8.9541-11.659-8.6511-12.951 2.3873-1.1068 12.73 5.7947 17.921 10.46z" style="stroke:#000;stroke-width:.5;fill:#f54d31;fill-rule:evenodd"/>
 <path d="m104.81 317.35s2.3137-9.8037 9.4854-11.108c0 0 4.6648-1.2854 10.527 1.7062 3.4008 1.7354 6.6451 6.0124 9.3262 12.674 0 0-22.591 3.936-29.339-3.2731z" style="stroke:#000;stroke-width:.5;fill:#fefefe;fill-rule:evenodd"/>
 <path d="m142.69 306.35s4.7185-18.337 7.3264-19.64c2.6079-1.3039 23.471 14.561 65.197.43465 0 0 8.4794 13.38 7.8275 19.791 0 0 12.006-14.8 24.607-10.805 0 0 22.219-47.818 21.297-58.575 0 0-55.863 13.447-84.355 12.481 0 0-19.541-.22576-39.601-2.5005-19.017-2.1565-38.269-6.2123-50.008-11.606 0 0 5.9205 30.854 23.306 60.845 0 0 16.859-.53931 24.403 10.68z" style="fill:#012c73;fill-rule:evenodd"/>
 <path d="m233.9 319.52s2.1733-13.691 18.038-14.995c0 0 6.5198-.21734 10.866 10.866 0 0 .65199 7.6063-28.904 4.1291z" style="stroke:#000;stroke-width:.5;fill:#fefefe;fill-rule:evenodd"/>
 <path d="m103.07 317.57c-7.3627 12.841 20.45 12.248 28.47 8.2583 0 0 6.5197-1.9559 8.041-2.1733 1.5213-.21735 4.9985-.65195 4.9985-3.0425 0 0-.1002-1.458-.65196-1.7386-2.4125-1.2271-3.4772 1.7386-7.8237 2.1733 0 0-14.778.8693-19.994.8693-5.2158 0-11.084-4.3465-13.039-4.3465z" style="stroke:#000;stroke-width:.5;fill:#ececec;fill-rule:evenodd"/>
 <path d="m233.69 319.74s2.8252-9.9969 7.8237-11.953c4.9985-1.9559-9.7796 1.5213-15.865 7.389 0 0 1.5213 4.9984 8.041 4.5638z" style="stroke:#000;stroke-width:.5;fill:#f54d31;fill-rule:evenodd"/>
 <path d="m224.12 315.4s-1.3039 6.5197 1.304 7.389c2.6079.86928 3.6945 0 3.6945 0s11.084 3.9118 11.953 3.9118c.86929 0 13.909 1.5213 23.254-2.3906 0 0 3.0426-4.1292 2.1733-6.9544 0 0-2.1733-2.1732-3.6945-1.304 0 0-2.2584 3.6269-8.3866 4.1093-5.3817.42364-12.332.5079-22.098-.36291-2.8765-.2565-5.2205-2.9206-8.1996-4.3984z" style="stroke:#000;stroke-width:.5;fill:#ececec;fill-rule:evenodd"/>
 <path style="color-rendering:auto;fill-rule:evenodd;color:#000000;isolation:auto;mix-blend-mode:normal;shape-rendering:auto;solid-color:#000000;image-rendering:auto;fill:#ffdb25" d="m159.86 170.52h47.243c2.9393 0 5.3056 2.3663 5.3056 5.3056v31.985c0 2.9393-2.3663 5.3056-5.3056 5.3056h-47.243c-2.9393 0-5.3056-2.3663-5.3056-5.3056v-31.985c0-2.9393 2.3663-5.3056 5.3056-5.3056z"/>
 <g transform="translate(-59.251 23.619)">
  <path d="m239.11 171.94q-.32787 0-.93115-.19672-.59017-.20984-.90493-.20984-.66885 0-2.0066.0787-1.3377.0787-2.0197.0787-.51148 0-1.5213.13115-.99673.13115-1.5082.13115-.14427 0-.41968-.0525t-.41967-.0525q-.90493 0-1.1803-.87869-.15738-.45902-.15738-1.5738 0-3.0558 1.6656-4.9181.76066-.85246 4.1049-3.1476 1.8754-1.2853 2.5049-2.0066 1.1279-1.259 1.1279-2.9508 0-.83935-1.0885-1.4951-.95739-.59017-1.8754-.59017-1.2066 0-2.2951.69509l-1.8754 1.4689q-.56394.4459-.90492.4459-1.3508 0-1.3508-1.0754 0-.6164.49836-1.0623 1.5344-1.4426 2.6623-2.0852 1.5869-.90493 3.2656-.90493 2.1246 0 3.7902 1.1541 1.8623 1.2984 1.8623 3.3312 0 1.3377-.38033 2.4656t-1.1541 2.059q-.98361 1.1803-3.3312 2.6361-2.4656 1.5476-3.2394 2.3476-1.4557 1.5082-1.4295 3.659l2.7016-.24919q2.7804-.15737 3.9738-.15737.99673 0 1.8885.34098 1.1803.45902 1.1803 1.2721 0 .51148-.35411.91804-.3541.39344-.87869.39344z"/>
  <path d="m249.68 172.74q-3.7246 0-5.482-2.7541-.23607-.38033-.23607-.73443 0-.51147.40656-.87869.40656-.38033.91804-.38033.53771 0 1.023.57705.69509.83935 1.0492 1.0754.85246.57705 2.3213.57705 2.2689 0 3.764-1.7312 1.4295-1.6525 1.4295-3.9738 0-1.9148-.62951-3.1082-.81312-1.5082-2.5049-1.5082-1.4033 0-2.2951.38033-.7082.30164-1.4295 1.0361l-1.4295 1.5607q-.57706.59016-1.1803.59016-.52459 0-.89181-.36721-.36721-.38033-.36721-.90493 0-.26229.20983-2.3344.44591-4.1312.44591-5.4295 0-.45902-.23607-.99672-.22295-.55083-.22295-.81312 0-.80001 1.3771-.80001.26229 0 .78689.0525.5377.0393.8.0393.76066 0 2.282-.0525t2.282-.0525q.3541 0 1.0754.0262.72131.0262 1.0754.0262.24919 0 .72132-.0918.47213-.10492.7082-.10492.51148 0 .90492.38033.39345.38033.39345.8787 0 1.4689-3.1082 1.4689-.40655 0-1.023-.0262-.6164-.0262-.74755-.0262l-2.2164.0393-2.2164.0656q0 .59017-.48525 4.3672 1.7967-1.4295 4.7869-1.4295 2.8853 0 4.4066 2.2558 1.2852 1.9148 1.2852 4.8787 0 3.541-2.0721 5.8361-2.1508 2.3869-5.6787 2.3869z"/>
 </g>
 <path d="m194.94 95.28s7.8372-20.285 27.815-15.521c0 0-1.2294 15.982-7.6836 17.519-6.4542 1.5367-20.131-1.9977-20.131-1.9977z" style="fill:#f8cdaa;fill-rule:evenodd"/>
 <path d="m164.72 95.052s-7.8373-20.285-27.815-15.521c0 0 1.2293 15.982 7.6836 17.519 6.4542 1.5367 20.131-1.9977 20.131-1.9977z" style="fill:#f8cdaa;fill-rule:evenodd"/>
 <path d="m211.69 63.817s-3.7654-2.6068-14.627-4.4894c0 0-2.8964-2.3171.28969-5.3583 0 0 12.02 5.5031 14.337 9.8478z" style="fill:#e36e12;fill-rule:evenodd"/>
 <path d="m148.57 63.817s3.7654-2.6068 14.627-4.4894c0 0 2.8964-2.3171-.28968-5.3583 0 0-12.02 5.5031-14.337 9.8478z" style="fill:#e36e12;fill-rule:evenodd"/>
 <g transform="translate(-59.251 23.619)">
  <path d="m225.2 185.72h-6.1524v-1.2757q.64088-.54932 1.2818-1.0986.64699-.54932 1.2024-1.0925 1.1719-1.1353 1.6052-1.8006.43336-.6714.43336-1.4466 0-.70802-.46998-1.1048-.46387-.40284-1.3001-.40284-.55542 0-1.2024.19532-.64698.19531-1.2634.59815h-.061v-1.2818q.43336-.21362 1.1536-.39063.72633-.177 1.4038-.177 1.3977 0 2.1912.6775.79347.6714.79347 1.825 0 .5188-.13428.97047-.12817.44556-.38452.8484-.23804.37842-.56154.74464-.31738.36622-.77515.81178-.65309.64088-1.3489 1.2451-.69581.59816-1.3001 1.1109h4.889v1.0437z"/>
  <path d="m233.15 182.26q0 .85451-.24414 1.5381-.23804.6836-.64698 1.1475-.43336.48218-.95216.72633-.51881.23804-1.1414.23804-.57984 0-1.0132-.14039-.43335-.13428-.8545-.36621l-.0732.31739h-1.0742v-9.4972h1.1475v3.3936q.48218-.39673 1.0254-.64698.54323-.25635 1.2207-.25635 1.2085 0 1.9043.92775.70191.92774.70191 2.6184zm-1.1841.0305q0-1.2207-.40283-1.8494-.40284-.63478-1.3001-.63478-.5005 0-1.0132.21973-.5127.21363-.95216.55543v3.9063q.48829.21973.83619.30518.35401.0854.79957.0854.95217 0 1.4893-.62257.54322-.62867.54322-1.9654z"/>
  <path d="m239.2 180.15h-.061q-.25635-.061-.50049-.0855-.23804-.0305-.56764-.0305-.53101 0-1.0254.23804-.49439.23194-.95216.60426v4.8402h-1.1475v-6.8177h1.1475v1.0071q.6836-.54933 1.2024-.77516.5249-.23194 1.0681-.23194.29907 0 .43335.0183.13428.0122.40284.0549v1.178z"/>
  <path d="m245.37 185.72h-1.1414v-.72633q-.15259.10376-.41505.29297-.25635.18311-.50049.29297-.28687.14039-.65919.23194-.37232.0977-.87282.0977-.92164 0-1.5625-.61036-.64088-.61036-.64088-1.5564 0-.77516.3296-1.2512.3357-.48219.95216-.75685.62257-.27466 1.4954-.37232.87282-.0976 1.8738-.14648v-.17701q0-.39063-.14038-.64698-.13428-.25635-.39063-.40284-.24415-.14038-.58595-.18921-.3418-.0488-.71412-.0488-.45167 0-1.0071.12207-.55542.11597-1.1475.34181h-.061v-1.1658q.3357-.0916.97047-.20142.63478-.10987 1.2512-.10987.72023 0 1.2512.12208.53712.11596.92775.40283.38452.28077.58594.72633.20142.44557.20142 1.1048v4.6265zm-1.1414-1.6785v-1.8982q-.52491.0305-1.239.0916-.70802.061-1.1231.177-.49439.14039-.79957.43946-.30518.29297-.30518.81178 0 .58595.35401.88502.35401.29298 1.0803.29298.60426 0 1.1048-.23194.5005-.23804.92775-.56764z"/>
  <path d="m252.63 185.29q-.57374.27467-1.0926.42726-.5127.15259-1.0925.15259-.73854 0-1.355-.21363-.61646-.21973-1.0559-.65919-.44557-.43946-.68971-1.1109-.24414-.67139-.24414-1.5686 0-1.6724.91554-2.6246.92164-.95216 2.4292-.95216.58595 0 1.1475.1648.56763.16479 1.0376.40283v1.2757h-.061q-.52491-.40895-1.0864-.62868-.55543-.21973-1.0864-.21973-.97658 0-1.5442.65919-.56153.65309-.56153 1.9226 0 1.2329.54932 1.8982.55543.65919 1.5564.65919.34791 0 .70802-.0916t.64698-.23804q.25025-.12817.46998-.26856.21973-.14648.3479-.25024h.061v1.2634z"/>
  <path d="m259.81 182.43h-5.0233q0 .62867.18922 1.0986.18921.46388.5188.76295.31739.29298.75074.43946.43946.14649.96437.14649.69581 0 1.3977-.27466.70802-.28077 1.0071-.54933h.061v1.2512q-.57984.24414-1.1841.40894t-1.2696.1648q-1.6968 0-2.649-.91554-.95216-.92165-.95216-2.6123 0-1.6724.90943-2.6551.91554-.98268 2.4048-.98268 1.3794 0 2.1241.80568.75074.80567.75074 2.2888v.62256zm-1.117-.87892q-.006-.90333-.45777-1.3977-.44556-.49439-1.3611-.49439-.92165 0-1.471.54322-.54322.54322-.61647 1.3489h3.9063z"/>
  <path d="m266.43 183.76q0 .93385-.77516 1.532-.76905.59815-2.1057.59815-.75685 0-1.3916-.177-.62867-.18311-1.0559-.39674v-1.2879h.061q.54322.40895 1.2085.65309.66529.23804 1.2756.23804.75684 0 1.1841-.24414.42725-.24415.42725-.76906 0-.40284-.23194-.61036-.23193-.20752-.89112-.35401-.24415-.0549-.64088-.12817-.39063-.0733-.71412-.1587-.89723-.23804-1.2757-.69581-.37232-.46387-.37232-1.1353 0-.42115.1709-.79347.17701-.37232.53102-.66529.3418-.28687.86671-.45166.53101-.17091 1.1841-.17091.61036 0 1.2329.15259.62867.14649 1.0437.36012v1.2268h-.061q-.43946-.32349-1.0681-.54322-.62868-.22583-1.2329-.22583-.62867 0-1.062.24414-.43335.23804-.43335.71412 0 .42115.26245.63478.25635.21362.83009.3479.31739.0733.70802.14649.39673.0732.65919.13428.79957.18311 1.2329.62867.43336.45167.43336 1.1963z"/>
 </g>
 <path style="fill-rule:evenodd;stroke:#000;stroke-width:.50001" d="m162.09 287.31c.0687-.064 22.68 9.0342 47.031-4.4645-24.624 13.267-46.715 3.6085-46.644 3.5424z"/>
 <path style="fill:#316c3c;fill-rule:evenodd" d="m61.325 336.14c-14.605 1.5539-3.848-63.156-.45069-80.816.53775-2.7954 1.5491-4.2131 1.5491-4.2131s1.427 1.4217 1.7967 3.3751c2.7153 14.349 11.956 74.345-2.8951 81.654z"/>
 <path d="m58.433 338.28c-13.873-4.0494 20.124-58.916 29.822-73.716 1.5351-2.3428 2.9859-3.2547 2.9859-3.2547s.76687 1.8277.37253 3.7437c-2.8968 14.075-16.931 72.132-33.18 73.227z" style="fill:#509554;fill-rule:evenodd"/>
 <path style="fill:#316c3c;fill-rule:evenodd" d="m57.904 341.2c-12.068-7.405 36.176-47.485 49.694-58.154 2.1397-1.6888 3.7865-2.1145 3.7865-2.1145s.20494 1.8507-.7234 3.4656c-6.8195 11.862-36.939 60.229-52.757 56.803z"/>
 <path style="fill:#509554;fill-rule:evenodd" d="m65.811 336.16c13.873-4.0493-20.124-58.916-29.822-73.716-1.5351-2.3428-2.9859-3.2547-2.9859-3.2547s-.76687 1.8277-.37253 3.7437c2.8968 14.075 16.931 72.132 33.18 73.227z"/>
 <path style="fill:#316c3c;fill-rule:evenodd" d="m58.643 338.96c-3.7145-9.8169 50.677-9.5516 50.677-9.5516s-43.106 18.562-50.677 9.5516z"/>
 <path d="m66.34 339.08c12.068-7.405-36.176-47.485-49.694-58.154-2.1397-1.6888-3.7865-2.1145-3.7865-2.1145s-.20494 1.8507.7234 3.4656c6.8195 11.862 36.939 60.229 52.757 56.803z" style="fill:#316c3c;fill-rule:evenodd"/>
 <path style="fill:#509554;fill-rule:evenodd" d="m58.942 336.08c-6.9947-9.3313 42.107-25.387 55.694-29.456 2.1507-.64409 3.541-.47049 3.541-.47049s-.4045 1.4794-1.6052 2.4343c-8.8205 7.0149-46.557 34.914-57.63 27.492z"/>
 <path d="m65.302 333.96c6.9947-9.3313-42.107-25.387-55.694-29.456-2.1507-.64409-3.541-.47049-3.541-.47049s.4045 1.4793 1.6052 2.4343c8.8205 7.0149 46.557 34.914 57.63 27.492z" style="fill:#509554;fill-rule:evenodd"/>
 <path d="m58.643 338.96c-3.7145-9.8169 50.677-9.5516 50.677-9.5516s-43.106 18.562-50.677 9.5516z" style="fill:#316c3c;fill-rule:evenodd"/>
 <path d="m438.52 314.69c-5.4533.58022-1.4368-23.582-.16828-30.176.20079-1.0438.57842-1.5731.57842-1.5731s.53284.53085.67087 1.2602c1.0138 5.3578 4.4641 27.76-1.081 30.489z" style="fill:#316c3c;fill-rule:evenodd"/>
 <path style="fill:#509554;fill-rule:evenodd" d="m437.44 315.49c-5.1799-1.512 7.5141-21.998 11.135-27.525.5732-.87479 1.1149-1.2153 1.1149-1.2153s.28635.68244.1391 1.3978c-1.0816 5.2553-6.322 26.933-12.389 27.342z"/>
 <path d="m437.24 316.58c-4.5061-2.7649 13.508-17.73 18.555-21.714.79892-.63057 1.4138-.78953 1.4138-.78953s.0765.69104-.27011 1.294c-2.5463 4.4293-13.793 22.489-19.699 21.209z" style="fill:#316c3c;fill-rule:evenodd"/>
 <path d="m440.2 314.7c5.1799-1.512-7.5141-21.998-11.135-27.525-.5732-.87478-1.1149-1.2153-1.1149-1.2153s-.28635.68243-.1391 1.3978c1.0816 5.2553 6.322 26.933 12.389 27.342z" style="fill:#509554;fill-rule:evenodd"/>
 <path d="m437.52 315.75c-1.387-3.6655 18.922-3.5665 18.922-3.5665s-16.095 6.9308-18.922 3.5665z" style="fill:#316c3c;fill-rule:evenodd"/>
 <path style="fill:#316c3c;fill-rule:evenodd" d="m440.39 315.79c4.5061-2.765-13.508-17.73-18.555-21.714-.79892-.63057-1.4138-.78953-1.4138-.78953s-.0765.69104.27011 1.294c2.5463 4.4293 13.793 22.489 19.699 21.209z"/>
 <path d="m437.63 314.67c-2.6118-3.4842 15.722-9.4792 20.795-10.999.80306-.24049 1.3222-.17567 1.3222-.17567s-.15103.55237-.59938.90894c-3.2935 2.6193-17.384 13.037-21.518 10.265z" style="fill:#509554;fill-rule:evenodd"/>
 <path style="fill:#509554;fill-rule:evenodd" d="m440.01 313.88c2.6118-3.4842-15.722-9.4792-20.795-10.999-.80306-.2405-1.3222-.17568-1.3222-.17568s.15103.55237.59938.90894c3.2935 2.6193 17.384 13.037 21.518 10.265z"/>
 <path style="fill:#316c3c;fill-rule:evenodd" d="m437.52 315.75c-1.387-3.6655 18.922-3.5665 18.922-3.5665s-16.095 6.9308-18.922 3.5665z"/>
 <path style="fill:#316c3c;fill-rule:evenodd" d="m350.2 341.5c-3.6102.38412-.95118-15.611-.11141-19.977.13293-.69098.38293-1.0414.38293-1.0414s.35275.35143.44412.83429c.67118 3.547 2.9553 18.377-.71564 20.184z"/>
 <path d="m349.48 342.02c-3.4292-1.001 4.9744-14.563 7.3717-18.222.37947-.57913.73808-.80454.73808-.80454s.18957.45178.0921.92539c-.71606 3.4791-4.1852 17.83-8.2018 18.101z" style="fill:#509554;fill-rule:evenodd"/>
 <path style="fill:#316c3c;fill-rule:evenodd" d="m349.35 342.75c-2.9831-1.8304 8.9424-11.738 12.284-14.375.5289-.41744.93599-.52268.93599-.52268s.0506.45748-.17882.85666c-1.6857 2.9323-9.1309 14.888-13.041 14.041z"/>
 <path style="fill:#509554;fill-rule:evenodd" d="m351.3 341.5c3.4292-1.001-4.9744-14.563-7.3717-18.222-.37947-.57912-.73808-.80454-.73808-.80454s-.18957.45178-.0921.92539c.71606 3.4791 4.1852 17.83 8.2018 18.101z"/>
 <path style="fill:#316c3c;fill-rule:evenodd" d="m349.53 342.19c-.91818-2.4266 12.527-2.361 12.527-2.361s-10.655 4.5883-12.527 2.361z"/>
 <path d="m351.44 342.22c2.9831-1.8304-8.9424-11.738-12.284-14.375-.5289-.41744-.93599-.52268-.93599-.52268s-.0506.45748.17882.85666c1.6857 2.9323 9.1309 14.888 13.041 14.041z" style="fill:#316c3c;fill-rule:evenodd"/>
 <path style="fill:#509554;fill-rule:evenodd" d="m349.61 341.48c-1.729-2.3066 10.408-6.2754 13.767-7.2812.53163-.15921.87529-.1163.87529-.1163s-.1.36568-.3968.60173c-2.1803 1.734-11.508 8.6304-14.245 6.7958z"/>
 <path d="m351.18 340.96c1.729-2.3066-10.408-6.2754-13.767-7.2812-.53163-.15921-.87529-.1163-.87529-.1163s.1.36568.3968.60173c2.1803 1.734 11.508 8.6304 14.245 6.7958z" style="fill:#509554;fill-rule:evenodd"/>
 <path d="m349.53 342.19c-.91818-2.4266 12.527-2.361 12.527-2.361s-10.655 4.5883-12.527 2.361z" style="fill:#316c3c;fill-rule:evenodd"/>
 <path d="m610.04 341.01c-6.0253.64107-1.5875-26.055-.18594-33.341.22185-1.1532.63909-1.7381.63909-1.7381s.58873.58653.74123 1.3924c1.1202 5.9198 4.9323 30.671-1.1944 33.686z" style="fill:#316c3c;fill-rule:evenodd"/>
 <path style="fill:#509554;fill-rule:evenodd" d="m608.85 341.9c-5.7232-1.6706 8.3022-24.306 12.303-30.412.63331-.96653 1.2318-1.3428 1.2318-1.3428s.31637.75402.15369 1.5445c-1.1951 5.8065-6.985 29.758-13.689 30.21z"/>
 <path d="m608.63 343.1c-4.9787-3.055 14.925-19.59 20.501-23.991.88272-.69671 1.5621-.87234 1.5621-.87234s.0846.76352-.29844 1.4297c-2.8134 4.8939-15.239 24.847-21.765 23.434z" style="fill:#316c3c;fill-rule:evenodd"/>
 <path d="m611.89 341.02c5.7232-1.6706-8.3022-24.306-12.303-30.412-.63331-.96654-1.2318-1.3428-1.2318-1.3428s-.31637.75401-.15369 1.5445c1.1951 5.8065 6.985 29.758 13.689 30.21z" style="fill:#509554;fill-rule:evenodd"/>
 <path d="m608.93 342.18c-1.5324-4.05 20.907-3.9405 20.907-3.9405s-17.783 7.6577-20.907 3.9405z" style="fill:#316c3c;fill-rule:evenodd"/>
 <path style="fill:#316c3c;fill-rule:evenodd" d="m612.11 342.23c4.9787-3.055-14.925-19.59-20.501-23.991-.88272-.69671-1.5621-.87234-1.5621-.87234s-.0846.76351.29844 1.4297c2.8134 4.8939 15.239 24.847 21.765 23.434z"/>
 <path d="m609.06 340.99c-2.8857-3.8496 17.371-10.473 22.977-12.152.88729-.26572 1.4608-.1941 1.4608-.1941s-.16687.6103-.66224 1.0043c-3.6389 2.894-19.207 14.404-23.775 11.342z" style="fill:#509554;fill-rule:evenodd"/>
 <path style="fill:#509554;fill-rule:evenodd" d="m611.68 340.12c2.8857-3.8496-17.371-10.473-22.977-12.152-.88729-.26572-1.4608-.1941-1.4608-.1941s.16687.61031.66224 1.0043c3.6389 2.894 19.207 14.404 23.775 11.342z"/>
 <path style="fill:#316c3c;fill-rule:evenodd" d="m608.93 342.18c-1.5324-4.05 20.907-3.9405 20.907-3.9405s-17.783 7.6577-20.907 3.9405z"/>
 <path style="fill:#9c7625;fill-rule:evenodd" d="m107.54 340.23s19.383-5.8793 37.516-3.7134c18.133 2.1658 17.181 4.8266 5.6274 4.9768-12.505.16254-24.386.54145-24.386.54145s-18.133 1.2634-18.758-1.8049z"/>
 <path d="m132.63 338.65s9.6042-3.3603 18.044-2.3522c8.44 1.0081 6.9848 3.6964 2.0372 2.9403-4.9476-.75608-11.35.25202-11.35.25202s-8.44.58806-8.731-.84008z" style="fill:#836014;fill-rule:evenodd"/>
 <path d="m420.42 339.7s9.6954-2.9407 18.765-1.8574c9.0699 1.0833 8.5938 2.4142 2.8148 2.4894-6.2551.0813-12.197.27082-12.197.27082s-9.0699.63195-9.3826-.90277z" style="fill:#9c7625;fill-rule:evenodd"/>
 <path style="fill:#836014;fill-rule:evenodd" d="m432.97 338.91s4.8039-1.6808 9.0255-1.1766c4.2216.50424 3.4937 1.8489 1.019 1.4707-2.4747-.37818-5.6773.12606-5.6773.12606s-4.2216.29414-4.3672-.4202z"/>
 <path d="m380.76 309.37s3.8826-1.1776 7.5146-.74381c3.6321.43383 3.4414.9668 1.1272.99688-2.5049.0326-4.8845.10845-4.8845.10845s-3.6321.25307-3.7573-.36152z" style="fill:#9c7625;fill-rule:evenodd"/>
 <path style="fill:#836014;fill-rule:evenodd" d="m385.78 309.05s1.9238-.67308 3.6143-.47116c1.6906.20193 1.3991.74039.40806.58895-.99101-.15144-2.2735.0505-2.2735.0505s-1.6906.11779-1.7489-.16827z"/>
 <g style="fill:#fbc83d" transform="translate(-1.2505 13.619)">
  <path style="fill:#fbc83d" d="m429.51 160.94q0 4.1132-4.2275 8.1122-27.193 25.251-57.014 44.332-3.1992 2.0566-6.0556 2.0566-4.1132 0-7.1982-3.1992-2.9707-3.3134-2.9707-7.4267 0-4.5703 4.456-7.998l44.332-33.82q-10.169-6.7412-25.137-20.68-18.281-17.253-18.281-23.88 0-4.1132 3.1992-7.1982 3.1992-3.0849 7.3124-3.0849 4.2275 0 7.6552 3.8847 26.051 29.136 47.188 40.104 6.7412 3.4277 6.7412 8.7978z"/>
 </g>
</svg>
